<svg width="50" height="50" viewBox="0 0 50 50" fill="none" xmlns="http://www.w3.org/2000/svg">
<g clip-path="url(#clip0)">
<path fill-rule="evenodd" clip-rule="evenodd" d="M25 48.7472C21.4123 48.7472 18.7927 48.1777 16.7426 46.9818C14.9639 45.9257 13.8363 44.4898 12.6183 42.939L12.5285 42.8246C11.7312 41.7995 10.9339 40.9453 9.96583 39.9772C8.99772 39.0091 8.08656 38.2118 7.11845 37.4146L7.00408 37.3247C5.45322 36.1068 4.01736 34.9791 2.96128 33.2005C1.76538 31.1503 1.1959 28.5308 1.1959 24.9431C1.1959 21.3554 1.76538 18.7358 2.96128 16.6856C4.01737 14.907 5.45323 13.7793 7.0041 12.5613L7.11845 12.4715C8.14351 11.6743 8.99772 10.877 9.96583 9.90888C10.9339 8.94077 11.7312 8.02961 12.5285 7.0615L12.6183 6.94715C13.8363 5.39629 14.9639 3.96042 16.7426 2.90433C18.7358 1.70843 21.3554 1.13895 25 1.13895C28.5877 1.13895 31.2073 1.70843 33.2574 2.90433C35.0361 3.96042 36.1637 5.39629 37.3817 6.94716L37.4715 7.0615C38.2688 8.08656 39.0661 8.94077 40.0342 9.90888C41.0023 10.877 41.9134 11.6743 42.8815 12.4715L42.9959 12.5613C44.5468 13.7793 45.9826 14.907 47.0387 16.6856C48.2346 18.7358 48.8041 21.2984 48.8041 24.9431C48.8041 28.5308 48.2346 31.1503 47.0387 33.2005C45.9826 34.9791 44.5468 36.1068 42.9959 37.3247L42.8815 37.4146C41.8565 38.2118 41.0023 39.0091 40.0342 39.9772C39.0661 40.9453 38.2688 41.8565 37.4715 42.8246L37.3817 42.939C36.1637 44.4898 35.0361 45.9257 33.2574 46.9818C31.2073 48.1777 28.5877 48.7472 25 48.7472ZM40.8314 40.8314C41.7995 39.8633 42.6538 39.123 43.6219 38.3827L43.713 38.3107C46.9263 35.7747 50 33.3488 50 24.9431C50 16.5614 46.9588 14.1497 43.6767 11.5469L43.6219 11.5034C42.6538 10.7631 41.7995 10.0228 40.8314 9.05467C39.8633 8.08656 39.123 7.23235 38.3827 6.26424L38.3117 6.17586C35.7753 3.0186 33.3504 0 25 0C16.5148 0 14.123 3.07517 11.5604 6.37813L11.5604 6.37814C10.82 7.2893 10.0797 8.20046 9.11162 9.11162C8.14351 10.0797 7.68793 10.5353 6.32118 11.5604L6.28026 11.5927C3.04937 14.1432 0 16.5505 0 25C0 33.4282 3.07517 35.877 6.37813 38.4396C7.34624 39.18 8.20046 39.9203 9.16856 40.8884C10.1367 41.8565 10.877 42.7107 11.6173 43.6788L11.6892 43.77C14.2253 46.9832 16.6512 50.0569 25.0569 50.0569C33.5421 50.0569 35.9339 46.9818 38.4966 43.6788C39.18 42.6538 39.9203 41.7995 40.8314 40.8314ZM17.8248 14.9203C14.6927 14.9203 13.0982 13.041 13.0982 13.041C13.0982 13.041 14.8635 11.1617 17.8818 11.1617C20.843 11.1617 22.5515 13.041 22.5515 13.041C22.5515 13.041 20.7861 14.9203 17.8248 14.9203ZM17.9387 10.4784C14.2371 10.4784 12.187 12.9841 12.187 12.9841C12.187 12.9841 14.0663 15.4897 17.7679 15.4897C21.4695 15.4897 23.4626 12.9841 23.4626 12.9841C23.4626 12.9841 21.4125 10.4784 17.9387 10.4784ZM8.42802 19.4191C8.42802 19.4191 10.0226 21.2984 13.1547 21.2984C16.116 21.2984 17.8813 19.4191 17.8813 19.4191C17.8813 19.4191 16.1729 17.5399 13.2116 17.5399C10.1934 17.5399 8.42802 19.4191 8.42802 19.4191ZM7.45991 19.4191C7.45991 19.4191 9.51003 16.9134 13.2116 16.9134C16.6854 16.9134 18.7355 19.4191 18.7355 19.4191C18.7355 19.4191 16.7424 21.9248 13.0408 21.9248C9.33918 21.9248 7.45991 19.4191 7.45991 19.4191ZM39.4079 26.8793C36.2757 26.8793 34.6812 25 34.6812 25C34.6812 25 36.4466 23.1207 39.4648 23.1207C42.4261 23.1207 44.1345 25 44.1345 25C44.1345 25 42.3691 26.8793 39.4079 26.8793ZM39.4648 22.4943C35.7632 22.4943 33.7131 25 33.7131 25C33.7131 25 35.5924 27.5057 39.294 27.5057C42.9956 27.5057 44.9887 25 44.9887 25C44.9887 25 42.9386 22.4943 39.4648 22.4943ZM38.1549 33.7699C35.0228 33.7699 33.4282 31.8907 33.4282 31.8907C33.4282 31.8907 35.1936 30.0114 38.2118 30.0114C41.1731 30.0114 42.8815 31.8907 42.8815 31.8907C42.8815 31.8907 41.1162 33.7699 38.1549 33.7699ZM38.2118 29.385C34.5103 29.385 32.4601 31.8907 32.4601 31.8907C32.4601 31.8907 34.3394 34.3964 38.041 34.3964C41.7426 34.3964 43.7358 31.8907 43.7358 31.8907C43.7358 31.8907 41.6856 29.385 38.2118 29.385ZM14.9773 39.3508C14.9773 39.3508 16.5719 41.2301 19.704 41.2301C22.6653 41.2301 24.4306 39.3508 24.4306 39.3508C24.4306 39.3508 22.7222 37.4715 19.7609 37.4715C16.7427 37.4715 14.9773 39.3508 14.9773 39.3508ZM14.0662 39.3508C14.0662 39.3508 16.1163 36.8451 19.8179 36.8451C23.2917 36.8451 25.3418 39.3508 25.3418 39.3508C25.3418 39.3508 23.3486 41.8565 19.647 41.8565C15.9454 41.8565 14.0662 39.3508 14.0662 39.3508ZM21.4124 34.3964C18.2803 34.3964 16.6858 32.5171 16.6858 32.5171C16.6858 32.5171 18.4511 30.6378 21.4694 30.6378C24.4306 30.6378 26.1391 32.5171 26.1391 32.5171C26.1391 32.5171 24.3737 34.3964 21.4124 34.3964ZM21.5263 30.0114C17.8247 30.0114 15.7746 32.5171 15.7746 32.5171C15.7746 32.5171 17.6539 35.0228 21.3555 35.0228C25.0571 35.0228 27.0502 32.5171 27.0502 32.5171C27.0502 32.5171 24.9432 30.0114 21.5263 30.0114ZM33.428 18.1093C33.428 18.1093 35.0226 19.9886 38.1547 19.9886C41.1159 19.9886 42.8813 18.1093 42.8813 18.1093C42.8813 18.1093 41.1729 16.2301 38.2116 16.2301C35.1934 16.2301 33.428 18.1093 33.428 18.1093ZM32.5169 18.0524C32.5169 18.0524 34.567 15.5467 38.2686 15.5467C41.6854 15.5467 43.7925 18.0524 43.7925 18.0524C43.7925 18.0524 41.7993 20.5581 38.0977 20.5581C34.3961 20.5581 32.5169 18.0524 32.5169 18.0524ZM37.0489 41.6572C36.8848 41.8589 36.7226 42.0582 36.5604 42.2551C34.1686 45.3303 32.2323 47.7221 25 47.779C17.7677 47.779 15.8314 45.3872 13.4396 42.3121C13.3097 42.1543 13.1798 41.995 13.0486 41.8342L13.0484 41.834L13.0482 41.8337C12.3747 41.008 11.6686 40.1424 10.7631 39.2369C9.85763 38.3314 8.99204 37.6254 8.16633 36.9518L8.16629 36.9518L8.16619 36.9517C8.00525 36.8204 7.84583 36.6904 7.68793 36.5604C4.6697 34.1686 2.2779 32.2323 2.2779 25C2.2779 17.7677 4.6697 15.8314 7.68793 13.4396C7.84586 13.3096 8.00531 13.1795 8.16628 13.0482C8.992 12.3747 9.85761 11.6686 10.7631 10.7631C11.6686 9.85761 12.3747 8.992 13.0482 8.16628C13.1795 8.00531 13.3096 7.84586 13.4396 7.68793C14.6355 6.15034 15.7175 4.7836 17.426 3.81549C19.2483 2.73348 21.6401 2.2779 25 2.2779C28.303 2.2779 30.6948 2.73348 32.574 3.75854C34.1431 4.64766 35.1357 5.87302 36.2578 7.25816L36.2593 7.26012L36.2628 7.26436C36.3608 7.38539 36.4599 7.50764 36.5604 7.63098C36.6904 7.78889 36.8204 7.94831 36.9517 8.10924L36.9518 8.10934L36.9518 8.10939C37.6254 8.93509 38.3314 9.80068 39.2369 10.7062C40.1424 11.6116 41.008 12.3177 41.8337 12.9912L41.834 12.9914L41.8342 12.9916C41.995 13.1228 42.1543 13.2528 42.3121 13.3827C42.4375 13.4849 42.5618 13.5856 42.6849 13.6853C44.07 14.8073 45.2954 15.8 46.1845 17.369C47.2096 19.1913 47.7221 21.6401 47.7221 24.9431C47.7221 32.1711 45.2763 34.1093 42.2605 36.4992L42.2551 36.5034C42.0973 36.6334 41.9379 36.7634 41.777 36.8947L41.7768 36.8948C40.951 37.5684 40.0854 38.2745 39.18 39.18C38.3635 40.0418 37.6915 40.8675 37.0489 41.6571L37.0489 41.6572ZM41.5262 36.3155L41.5263 36.3154C41.6386 36.2245 41.7488 36.1354 41.8565 36.0478C44.8747 33.656 47.0957 31.8907 47.0387 25C47.0387 18.0588 44.8787 16.3471 41.8649 13.9588L41.8565 13.9522C41.7235 13.8427 41.5884 13.7321 41.4515 13.62C40.5912 12.916 39.6578 12.1521 38.7244 11.2187C37.5854 10.1367 36.7312 9.05467 35.9909 8.08656C33.656 5.06834 31.8907 2.90433 25 2.90433C18.0588 2.90433 16.3471 5.06433 13.9588 8.07817L13.9522 8.08656C13.8427 8.21952 13.7321 8.35462 13.62 8.49158C12.916 9.35187 12.1521 10.2853 11.2187 11.2187C10.1367 12.3576 9.05467 13.2118 8.08656 13.9522L8.07817 13.9588C5.06433 16.3471 2.90433 18.0588 2.90433 25C2.90433 31.8907 5.06834 33.656 8.14351 36.1048C9.11162 36.8451 10.1936 37.6993 11.2756 38.7813C12.3576 39.8633 13.2118 40.9453 13.9522 41.9134L13.9588 41.9218C16.3471 44.9357 18.0588 47.0957 25 47.0957C31.8907 47.0957 33.656 44.8747 36.0478 41.8565C36.7882 40.8884 37.6424 39.8064 38.7244 38.7244C39.7286 37.7704 40.6885 36.9934 41.5261 36.3155L41.5262 36.3155ZM32.3461 13.9522C32.0045 14.123 31.3211 14.3508 30.5238 14.4077C30.5581 14.0649 30.6337 13.5775 30.7008 13.1445C30.7452 12.8583 30.7859 12.5959 30.8086 12.4146C30.9225 11.2756 30.0682 10.877 29.6127 10.7631C29.1571 10.5923 28.3029 10.3645 27.6764 11.3326C27.5499 11.5224 27.3355 11.8879 27.1211 12.2535L27.121 12.2536L27.121 12.2536C26.9495 12.5461 26.7779 12.8385 26.6514 13.041C25.7402 12.2437 25.1138 11.1617 24.9999 10.0797C24.943 9.68109 25.0569 8.82688 25.5124 8.31435C26.1389 7.63098 26.9931 7.63098 27.7903 8.02961C28.132 7.28929 29.3279 6.03645 31.0364 6.66287C32.7448 7.23235 32.9156 8.94077 32.8017 9.73804C33.7129 9.90888 34.3393 10.4784 34.3963 11.4465C34.3963 12.3576 33.6559 13.3827 32.3461 13.9522ZM28.9293 12.6424C29.271 12.7563 29.6696 12.8132 30.0682 12.7563C30.0532 12.8466 30.0341 12.9808 30.0122 13.1356C29.9511 13.5661 29.8673 14.1564 29.7835 14.4077H29.6696C28.9862 14.3508 28.0751 14.0661 27.2778 13.6105C27.2493 13.6105 27.2351 13.5962 27.2209 13.582C27.2066 13.5678 27.1924 13.5535 27.1639 13.5535C27.2573 13.2732 27.619 12.6864 27.8403 12.3274C27.8888 12.2487 27.9305 12.181 27.9612 12.1298C28.2459 12.3576 28.5876 12.5285 28.9293 12.6424ZM30.1252 11.959C30.0113 12.1868 29.4418 12.1298 29.1571 12.0159C28.8723 11.9021 28.3598 11.6173 28.4168 11.3895C28.5307 11.1617 29.1001 11.2187 29.3849 11.3326C29.6696 11.4465 30.1821 11.7312 30.1252 11.959ZM27.7903 16.0023C25.7972 15.3189 24.2026 13.4396 24.4304 10.877C24.7721 12.1868 25.7402 13.8952 28.2459 14.6925C30.8086 15.5467 32.5739 14.7494 33.6559 13.9522C32.1753 16.2301 29.7266 16.6287 27.7903 16.0023ZM34.3963 9.96583C34.0546 9.5672 33.599 9.33941 33.3712 9.28246C33.4282 8.59909 33.1434 6.83371 31.2072 6.15034C29.271 5.46697 27.9612 6.71982 27.5626 7.28929C27.3348 7.23235 26.8222 7.11845 26.3097 7.23235C25.1708 7.40319 23.9749 8.88383 23.9179 11.2187C23.861 13.3827 24.943 15.4897 27.2209 16.4009C27.1867 16.4692 27.1525 16.5991 27.1184 16.7289C27.0956 16.8155 27.0728 16.9021 27.05 16.9704C25.6833 21.0137 26.9361 23.1207 28.3029 25.3986L28.3436 25.4665C29.3564 27.154 30.4099 28.9094 30.4099 31.6629C30.4099 33.3179 30.0893 34.5453 29.7586 35.8112L29.7266 35.9339L29.7162 35.9722C29.1496 38.0686 28.5338 40.3468 29.0432 44.9317H29.6127C29.1571 40.4328 29.7266 38.098 30.296 36.1048C30.6947 34.738 31.0364 33.4282 31.0364 31.6629C31.0364 28.6634 29.9115 26.7888 28.8914 25.0888L28.8723 25.0569L28.8707 25.0542C27.5616 22.8913 26.4241 21.0121 27.6764 17.2551C27.7049 17.1982 27.7476 17.0843 27.7903 16.9705L27.7903 16.9704L27.7904 16.9703C27.8331 16.8565 27.8758 16.7426 27.9042 16.6856C30.4099 17.426 32.5739 16.4009 33.8837 14.6355C35.2505 12.6993 35.1935 10.82 34.3963 9.96583ZM13.6105 26.6515C15.262 28.7016 15.205 30.6948 14.7495 31.9476C16.344 29.9544 16.0023 27.4487 14.6356 25.7973C13.3827 24.2597 11.1048 23.2346 8.65607 24.3736C10.0228 24.2597 11.9021 24.5444 13.6105 26.6515ZM10.8201 28.9294C10.9909 29.1572 11.4465 29.5558 11.6743 29.385C11.9021 29.2141 11.6173 28.7016 11.3896 28.4738C11.2187 28.246 10.7631 27.8474 10.5353 28.0182C10.3645 28.1891 10.6492 28.7016 10.8201 28.9294ZM12.1299 26.082C11.9021 26.3098 11.2757 27.0501 11.0479 27.3349C11.3896 27.5057 11.7312 27.7335 11.9021 27.9613C12.1299 28.246 12.3007 28.5877 12.3577 28.9863C12.6994 28.8155 13.5536 28.3599 13.8383 28.1891C13.8383 28.1606 13.8241 28.1464 13.8098 28.1321C13.7956 28.1179 13.7814 28.1036 13.7814 28.0752C13.3827 27.3349 12.7563 26.5376 12.2438 26.139C12.2153 26.139 12.2011 26.1247 12.1868 26.1105C12.1726 26.0962 12.1583 26.082 12.1299 26.082ZM12.5855 33.4852C13.2119 33.3144 13.7814 32.6879 13.9522 32.2893C14.4078 31.3212 14.4647 30.0683 14.123 28.9294C13.6675 29.2141 12.7563 29.6697 12.3577 29.8405C11.2757 30.2961 10.6492 29.6128 10.3645 29.2711C10.0798 28.9294 9.56723 28.1321 10.2506 27.221C10.5353 26.8793 11.2187 26.082 11.5604 25.6834C10.877 25.2847 10.1937 25.1139 9.79502 25.0569C8.31439 24.8292 7.17543 25.2847 6.7768 26.082C6.32122 26.9362 6.54901 27.7335 7.23238 28.3599C6.71985 28.9294 5.92259 30.467 7.06154 31.8907C8.20049 33.3144 9.85197 32.8588 10.5353 32.4601C10.9909 33.3144 11.6743 33.713 12.5855 33.4852ZM20.2164 23.4624C22.5513 23.4624 24.7722 24.5444 26.4237 26.4237C27.8474 28.0752 28.7016 30.2392 28.7586 32.2323C28.7586 33.9408 28.4169 35.2506 28.0183 36.7312C27.9995 36.804 27.9806 36.8773 27.9617 36.9509C27.4608 38.8931 26.8793 41.1479 26.8793 44.9886H26.2529C26.2529 40.8884 26.8793 38.6105 27.4488 36.5604L27.4607 36.5159C27.8542 35.0546 28.1891 33.8109 28.1891 32.2323C28.1891 30.8087 27.6196 29.1002 26.6515 27.6765C25.3417 25.6834 23.1777 24.0888 20.3303 24.0888C18.0524 24.0888 16.5718 24.9431 15.8315 25.5125C15.7648 25.5792 15.6785 25.646 15.607 25.7012C15.5565 25.7403 15.5134 25.7737 15.4898 25.7973C16.9135 27.8474 16.6857 30.1822 15.4898 32.0046C14.18 33.9408 12.4146 34.5103 11.3326 34.0547C10.8201 33.8269 10.4214 33.4852 10.3076 33.3144C9.68113 33.5991 7.85881 33.8838 6.60596 32.2893C5.29616 30.6948 6.03648 28.9863 6.43512 28.4738C6.26427 28.303 6.03648 27.8474 5.92259 27.3349C5.6948 26.1959 6.66291 24.6014 8.88386 23.6902C10.934 22.9499 13.3258 23.2346 15.0342 25.2278C15.0627 25.1993 15.1196 25.1566 15.1766 25.1139C15.2335 25.0712 15.2905 25.0285 15.3189 25C16.1162 24.4305 17.7677 23.4624 20.2164 23.4624Z" fill="white"/>
</g>
<defs>
<clipPath id="clip0">
<rect width="50" height="50" fill="white"/>
</clipPath>
</defs>
</svg>