<?xml version="1.0" encoding="utf-8"?>
<!-- Generator: Adobe Illustrator 24.2.1, SVG Export Plug-In . SVG Version: 6.00 Build 0)  -->
<svg version="1.1" id="圖層_1" xmlns="http://www.w3.org/2000/svg" xmlns:xlink="http://www.w3.org/1999/xlink" x="0px" y="0px"
	 viewBox="0 0 636 64" style="enable-background:new 0 0 636 64;" xml:space="preserve">
<g>
	<path d="M171.4,38.9h5.7V6h-5.7V38.9z M148.4,36.5V22.7h15v-2.4l-15,0v-12h16.5l0-2.4h-22.2v33H165v-2.4H148.4z M196,36.5h-5.4V8.3
		l5.4,0c10.2,0,12.5,7.3,12.5,14.1C208.5,29.8,205.8,36.5,196,36.5 M196.2,6h-11.3v33c0,0,10.5,0,11.4,0c16.6,0,17.9-13.4,17.9-16.5
		C214.2,18.4,212.3,6,196.2,6 M236,37.3c-11.4,0-12.5-10.2-12.5-14.9c0-4.4,1-14.9,12.5-14.9c11.4,0,12.5,10.2,12.5,14.9
		C248.5,26.8,247.5,37.3,236,37.3 M236,5.5c-10.9,0-18.2,7.4-18.2,17c0,9.5,7.3,16.9,18.2,16.9c10.9,0,18.2-7.4,18.2-16.9
		C254.2,12.9,246.8,5.5,236,5.5 M62.1,2.2c0,0-3.8-2.3-10-2.2c-7.5,0.2-13.9,5.1-17.3,10.1c-2.4,3.6-4,7.2-5.3,10.9
		c-0.8,2.4-2.4,5.9-3.5,8.5c-2.4,5.3-6.6,9.9-13.2,9.5c-6.7-0.4-11.4-5.2-11.4-5.2L0,35.4c3,2.9,7.9,5.8,14,6
		c6.6,0.2,14.1-3.7,17.6-9.6c1.1-1.8,3-5.3,4.2-9.2c1.5-5,2.6-8.6,4.2-11.8c1.6-3.1,6-8.7,13.2-8.8c4.9,0,8.1,1.8,8.1,1.8L62.1,2.2z
		 M92.5,38.9h5.7V6h-5.7V38.9z M79,20.6H61.3V6h-5.7v33h5.7V23H79v15.9h5.7V6H79V20.6z M122.9,13.1c-1.3,2.3-3.1,5.6-4.1,8.5
		c-1,2.8-2.7,7.6-3.4,9.1c-2.1,4.9-4,7.1-8.3,6.9c-2.7-0.1-5.6-2.3-5.6-2.3l-1,1.4c0.8,0.7,3.7,2.7,7.7,2.8c4.9,0.1,8.5-2.4,11-6
		c1.8-2.5,3.4-6.4,4.9-10.2c1.4-3.7,2.6-8.3,4.2-11.4c1.6-3.1,4.1-4.9,7.2-4.9c2.3,0,4,0.9,4,0.9l0.7-1.6c0,0-2.5-1.2-5.1-1.1
		C129.1,5.4,125.3,9.1,122.9,13.1"/>
	<path d="M117.7,59.4l2.8-6l2.8,6H117.7z M120.1,52.1l-5.2,11.2h1.1l1.4-3h6.4l1.4,3h2.2l-5.3-11.2H120.1z"/>
	<polygon points="179.8,52.1 178.2,52.1 172.5,57.3 172.5,52.1 170.5,52.1 170.5,63.3 172.5,63.3 172.5,57.7 177.9,63.3 180.6,63.3 
		174.4,57 	"/>
	<path d="M66.9,61.8c-1,0.8-2.5,1.7-4.6,1.7c-3.8,0-6.5-2.1-6.5-5.8c0-3.4,2.5-5.8,6.3-5.8c2.2,0,3.6,0.9,4.4,1.7l-0.6,0.6
		c-0.8-0.9-1.9-1.4-3.5-1.4c-2.8,0-4.6,1.8-4.6,4.9c0,3,2,4.9,4.7,4.9c0.9,0,1.8-0.2,2.3-0.5v-3.6h-2.2v-0.9h4.2V61.8z"/>
	<rect x="74.7" y="52.1" width="2" height="11.2"/>
	<polygon points="93.2,63.3 85.7,54 85.7,63.3 84.7,63.3 84.7,52.1 86.6,52.1 93.7,61 93.7,52.1 94.6,52.1 94.6,63.3 	"/>
	<polygon points="100.6,63.3 100.6,62.5 107.4,53 101.1,53 101.1,52.1 109.8,52.1 109.8,53 103.1,62.4 110.1,62.4 110.1,63.3 	"/>
	<polygon points="143.1,53 143.1,63.3 141.1,63.3 141.1,53 137.3,53 137.3,52.1 146.8,52.1 146.8,53 	"/>
	<path d="M162.7,57.7c0-3-1.7-5-4.3-5c-2.6,0-4.3,2.1-4.3,5c0,3,1.7,5,4.3,5C161,62.8,162.7,60.7,162.7,57.7 M164.8,57.7
		c0,3.7-2.9,5.8-6.4,5.8c-3.5,0-6.4-2.1-6.4-5.8c0-3.7,2.9-5.8,6.4-5.8C161.8,51.9,164.8,54,164.8,57.7"/>
	<polygon points="191.2,58.5 191.2,63.3 189.3,63.3 189.3,58.5 184.7,52.1 187.2,52.1 190.9,57.5 194.6,52.1 195.8,52.1 	"/>
	<path d="M209.6,57.7c0-3-1.7-5-4.3-5s-4.3,2.1-4.3,5c0,3,1.7,5,4.3,5S209.6,60.7,209.6,57.7 M211.6,57.7c0,3.7-2.9,5.8-6.4,5.8
		c-3.5,0-6.4-2.1-6.4-5.8c0-3.7,2.9-5.8,6.4-5.8C208.7,51.9,211.6,54,211.6,57.7"/>
</g>
<g>
	<g>
		<path d="M301.5,18.5c0,0.3,0,0.7-0.1,1.1c2.5,2.6,7.5,4.2,13.7,4.5c-0.8,0.9-1.9,2.4-2.3,3.6c-5.3-0.7-9.6-2.4-12.5-5.1
			c-1.7,2.2-5.4,4.2-13.4,5.3c-0.4-1-1.4-2.4-2.2-3.2h-11.9v-3.4h13.6v3.1c10.1-1.3,11.2-3.9,11.2-5.9v-0.6h-3.9
			c-1,1.7-2.2,3.2-3.4,4.3c-0.7-0.6-2.3-1.7-3.3-2.2c2.4-2.1,4.3-5.3,5.4-8.6l3.9,0.8c-0.3,0.8-0.6,1.5-0.9,2.3H310l0.6-0.2l3,1
			c-1.2,2.5-2.8,5.2-4.1,6.9l-3.4-1.2c0.6-0.8,1.3-2.1,2-3.2h-6.5V18.5z M301.2,46.9c4.8,1.6,10,3.6,13.2,5.1l-3.9,2.4
			c-2.9-1.5-7.8-3.6-12.6-5.3l2.7-2.2h-14l3.9,1.8c-3.8,2.3-9.6,4.5-14.3,5.8c-0.7-0.9-2.3-2.5-3.2-3.3c4.8-0.9,10.2-2.5,13.5-4.3
			h-7.5V28.1h30.5v18.8H301.2z M285.2,17.3h-11.5v-3.3h11.5V17.3z M283.1,33.5H305v-2.7h-21.9V33.5z M283.1,38.7H305v-2.6h-21.9
			V38.7z M283.1,44.1H305v-2.7h-21.9V44.1z"/>
		<path d="M360,48.8V53h-41.5v-4.2H337V38h-13.3v-4.2H337v-9.4h-10.4c-1.4,2.8-3,5.3-4.6,7.2c-0.9-0.7-2.8-2-4-2.6
			c3.8-4,6.7-10.4,8.5-16.9l4.5,1c-0.7,2.4-1.5,4.8-2.4,7h8.5v-8.7h4.5v8.7h16.3v4.3h-16.3v9.4H356V38h-14.5v10.8H360z"/>
		<path d="M404.9,49.4v3.8h-40.6v-3.8h18v-4.7h-13.8v-3.8h13.8v-3.9h-10.5V25.7h25.8v11.3h-10.9v3.9h14.7v3.8h-14.7v4.7H404.9z
			 M368.4,29.2h-4V18.7h7.6c-0.8-1.6-2.2-3.7-3.4-5.2l3.9-1.5c1.6,1.8,3.3,4.3,4,6l-1.7,0.8h7.4v-7.2h4.4v7.2h8l-2.2-0.8
			c1.4-1.7,3-4.3,4-6.2l4.5,1.4c-1.4,2.1-3,4.1-4.4,5.5h8.2v10.5h-4.2v-6.7h-32.1V29.2z M375.7,33.5h17.5v-4.4h-17.5V33.5z"/>
		<path d="M410.4,34h16.9v20.2H423V52h-8.5v2.4h-4.1V34z M414.5,38.1v9.7h8.5v-9.7H414.5z M443.1,29.4H417V13.5h26.1V29.4z
			 M438.7,17.6h-17.5v7.6h17.5V17.6z M449.7,34v20.3h-4.3V52H436v2.4h-4.2V34H449.7z M445.3,47.8v-9.7H436v9.7H445.3z"/>
		<path d="M464.9,11.5h3.6v16.3h-7.9v2.3c0,1.2,0,2.4,0,3.8h7.9v20.5h-4V37.6h-4.1c-0.4,5.8-1.2,12-3.1,16.8c-0.9-0.4-2.8-1-3.9-1.4
			c2.8-6.6,3.2-16.3,3.2-23V12.6h4v11.5h4.3V11.5z M496.7,45.2h-7.7v9.2H485v-9.2h-15.2v-3.8h4.7c-0.6-0.6-1.3-1.1-1.9-1.5
			c2.2-1.4,3.9-3.1,5.1-4.8h-6.3V16.3h6.5c0.7-1.5,1.5-3.4,1.9-4.7l4.9,0.7c-0.7,1.4-1.5,2.9-2.2,4.1h11.9v18.8h-12.4
			c-1.2,2.2-2.8,4.4-5.1,6.3h8v-5.2h3.9v5.2h7.7L496.7,45.2z M475.5,24h5.6v-4.2h-5.6V24z M479.7,31.6c0.7-1.5,1-3,1.2-4.3h-5.4v4.3
			H479.7z M490.3,27.3h-5.5c-0.2,1.2-0.6,2.7-1.1,4.3h6.6V27.3z M490.3,19.8H485V24h5.3V19.8z"/>
		<path d="M520.9,19.7c-1.3,2.5-2.9,4.8-4.6,6.5c-0.6-0.7-2.1-2.1-3-2.7c0.2-0.2,0.4-0.4,0.7-0.7h-6.5c0,2-0.1,3.9-0.2,5.8h7.8v1.8
			c-0.4,14.9-0.7,20.1-1.8,21.7c-0.7,1.1-1.4,1.4-2.7,1.6c-0.9,0.1-2.4,0.2-4.1,0.1c0-1.1-0.4-2.8-1-3.8c1.4,0.1,2.6,0.1,3.2,0.1
			c0.6,0,0.9-0.1,1.3-0.7c0.7-1,1-5.2,1.3-16.9h-4.1c-0.5,8.7-1.8,16.6-5.2,21.9c-0.7-0.9-1.9-2.2-3-2.9c4.2-6.5,4.6-17.6,4.8-28.8
			h-4.4v-3.9h7.8c-0.6-1.8-1.9-4.4-2.9-6.4l3.6-1.1c1.3,2,2.6,4.6,3.2,6.3l-3.2,1.2h7.3v2.5c2.2-2.8,3.9-6.4,5-10.1l3.8,0.9
			c-0.4,1.3-0.9,2.7-1.4,3.9h18.8v3.6H520.9z M541.8,41.6v3.6h-25.5v-3.6h4.9V27.8h-2.9v-3.6h2.9v-2.9h3.8v2.9h8.4v-2.9h3.8v2.9h3.4
			v3.6h-3.4v13.8H541.8z M527.3,46.8c-1.9,2.9-5.1,5.9-7.7,7.9c-0.7-0.7-2.2-2-3.2-2.6c2.7-1.6,5.4-4,7.1-6.5L527.3,46.8z M525,27.8
			v2.6h8.4v-2.6H525z M525,36h8.4v-2.7H525V36z M525,41.6h8.4v-2.8H525V41.6z M533.7,45.4c2.6,2,5.8,4.9,7.3,6.8l-3.2,2.3
			c-1.5-1.9-4.6-5-7.2-7.1L533.7,45.4z"/>
		<path d="M559.5,34v16c0,1.8-0.4,2.8-1.5,3.4c-1.1,0.6-2.8,0.7-5.3,0.7c-0.1-0.9-0.7-2.4-1.1-3.3c1.7,0,3.3,0,3.8,0
			c0.5,0,0.7-0.2,0.7-0.7V34.5l-5.4,0.8c0,6.1-0.6,14.1-3.8,19.2c-0.6-0.7-2.1-1.6-3-2c2.9-4.6,3.3-11.2,3.4-16.7l-2.6,0.4l-0.5-3.6
			c0.9-0.1,2-0.2,3.1-0.4v-15h3.8c0.5-1.8,0.9-4.1,1.2-5.8l4,0.7c-0.6,1.7-1.1,3.5-1.7,5h4.9v13.5l1.6-0.2l0.3,3.3L559.5,34z
			 M556.1,31.1V20.6h-5.4v11.1L556.1,31.1z M553.4,44.6c-0.5-1.9-1.5-4.9-2.5-7.1l2.3-0.9c1.1,2.2,2.2,5.1,2.7,6.9L553.4,44.6z
			 M553.5,22.4c0.8,2.1,1.9,4.6,2.3,6.4l-2.5,1c-0.4-1.8-1.4-4.5-2.2-6.5L553.5,22.4z M587.7,49.6v3.7h-27.4v-3.7h2.8V37h22.4v12.6
			H587.7z M562.1,12.8h13v3.3h-3.7v3.3h3.3v5.6c1.9-3.4,3.1-8.3,3.7-13.2l3.6,0.7c-0.3,2-0.7,3.9-1.1,5.8h6.2v3.6H580
			c-0.7,2.1-1.4,3.9-2.2,5.4c-0.7-0.5-2-1.3-2.9-1.7v2.9h-3.3v3.5h4.2v3.3h-13.6V12.8z M565.4,16.1v3.3h3v-3.3H565.4z M571.9,22.2
			h-6.5v3.6h6.5V22.2z M568.4,28.5h-3v3.5h3V28.5z M566.6,49.6h3.2v-9.1h-3.2V49.6z M572.6,40.5v9.1h3.2v-9.1H572.6z M576.6,29.3h10
			V33h-10V29.3z M578.6,40.5v9.1h3.2v-9.1H578.6z"/>
		<path d="M628.4,24.7v-4.4h-16.8V24h16.6v12.1h-13.7v3.5h15.9v14.6h-3.8v-1.6h-12v1.8h-3.8V24.7H608v-7.1l-1.8,3.2
			c-1.4-1.1-4.2-2.8-6.6-4.2c-1,1.2-2,2.4-3.1,3.5h7.6v3h-8v-2.6c-1.5,1.4-3.2,2.8-4.8,3.9c-0.2-0.8-1.2-2.9-1.8-3.9
			c3.6-2.2,7.4-5.8,9.5-9.5l3.4,1.2c-0.2,0.5-0.5,1-0.8,1.5c2.2,1.3,4.9,2.8,6.4,3.7v-0.7h10.7c-0.5-1.3-1.3-2.9-2-4.1l3.8-1.6
			c0.9,1.6,2,3.6,2.5,5l-1.5,0.7h10.6v7.9H628.4z M603.2,42.3c1.7,2.9,3.7,6.9,4.6,9.2l-3.1,1.5c-0.4-1-0.9-2.2-1.5-3.5
			c-8.7,3.5-10.1,4.1-11,4.8c-0.2-1-0.8-2.7-1.4-3.6c0.7-0.3,1.7-1,1.7-2.7V25.5h13.7v16h-10v7l5.5-2c-0.6-1.1-1-2.1-1.5-3
			L603.2,42.3z M596.2,28.8v3.1h6.2v-3.1H596.2z M602.4,38.3V35h-6.2v3.3H602.4z M614.5,27.5v5.1h10.1v-5.1H614.5z M614.5,43.1v5.7
			h12v-5.7H614.5z"/>
	</g>
</g>
</svg>
